Oxygen-Sans.ufo
<glyph name="quotedbl" format="1">
  <advance width="641"/>
  <unicode hex="0022"/>
  <outline>
    <contour>
      <point x="159" y="953" type="line"/>
      <point x="234" y="953" type="line"/>
      <point x="277" y="1460" type="line"/>
      <point x="109" y="1460" type="line"/>
    </contour>
    <contour>
      <point x="423" y="953" type="line"/>
      <point x="499" y="953" type="line"/>
      <point x="548" y="1460" type="line"/>
      <point x="380" y="1460" type="line"/>
    </contour>
  </outline>
</glyph>
<glyph name="one" format="1">
  <advance width="1204"/>
  <unicode hex="0031"/>
  <outline>
    <contour>
      <point x="237" y="0" type="line"/>
      <point x="1069" y="0" type="line"/>
      <point x="1069" y="120" type="line"/>
      <point x="755" y="120" type="line"/>
      <point x="755" y="1460" type="line"/>
      <point x="602" y="1460" type="line"/>
      <point x="526" y="1407"/>
      <point x="351" y="1353"/>
      <point x="268" y="1336" type="curve"/>
      <point x="268" y="1204" type="line"/>
      <point x="351" y="1215"/>
      <point x="500" y="1258"/>
      <point x="589" y="1308" type="curve"/>
      <point x="589" y="120" type="line"/>
      <point x="237" y="120" type="line"/>
    </contour>
  </outline>
</glyph>
<glyph name="seven" format="1">
  <advance width="1204"/>
  <unicode hex="0037"/>
  <outline>
    <contour>
      <point x="360" y="0" type="line"/>
      <point x="526" y="0" type="line"/>
      <point x="1038" y="1342" type="line"/>
      <point x="1038" y="1460" type="line"/>
      <point x="190" y="1460" type="line"/>
      <point x="209" y="1326" type="line"/>
      <point x="864" y="1326" type="line"/>
    </contour>
  </outline>
</glyph>
<glyph name="nine" format="1">
  <advance width="1204"/>
  <unicode hex="0039"/>
  <outline>
    <contour>
      <point x="617" y="719" type="curve" smooth="yes"/>
      <point x="421" y="719"/>
      <point x="312" y="850"/>
      <point x="312" y="1027" type="curve" smooth="yes"/>
      <point x="312" y="1197"/>
      <point x="422" y="1349"/>
      <point x="625" y="1349" type="curve" smooth="yes"/>
      <point x="828" y="1349"/>
      <point x="930" y="1201"/>
      <point x="930" y="1033" type="curve" smooth="yes"/>
      <point x="930" y="795"/>
      <point x="747" y="719"/>
    </contour>
    <contour>
      <point x="303" y="0" type="line"/>
      <point x="499" y="0" type="line"/>
      <point x="856" y="488" type="line" smooth="yes"/>
      <point x="989" y="670"/>
      <point x="1088" y="810"/>
      <point x="1088" y="1022" type="curve" smooth="yes"/>
      <point x="1088" y="1260"/>
      <point x="922" y="1480"/>
      <point x="620" y="1480" type="curve" smooth="yes"/>
      <point x="333" y="1480"/>
      <point x="150" y="1277"/>
      <point x="150" y="1025" type="curve" smooth="yes"/>
      <point x="150" y="765"/>
      <point x="356" y="590"/>
      <point x="588" y="590" type="curve" smooth="yes"/>
      <point x="665" y="590"/>
      <point x="730" y="611"/>
      <point x="784" y="640" type="curve"/>
      <point x="748" y="594"/>
      <point x="711" y="547"/>
      <point x="682" y="508" type="curve" smooth="yes"/>
    </contour>
  </outline>
</glyph>
<glyph name="semicolon" format="1">
  <advance width="526"/>
  <unicode hex="003B"/>
  <outline>
    <contour>
      <point x="152" y="-300" type="line"/>
      <point x="247" y="-300" type="line"/>
      <point x="368" y="188" type="line"/>
      <point x="186" y="188" type="line"/>
    </contour>
    <contour>
      <point x="269" y="833" type="curve" smooth="yes"/>
      <point x="353" y="833"/>
      <point x="391" y="890"/>
      <point x="391" y="946" type="curve" smooth="yes"/>
      <point x="391" y="1001"/>
      <point x="353" y="1058"/>
      <point x="269" y="1058" type="curve" smooth="yes"/>
      <point x="185" y="1058"/>
      <point x="146" y="1001"/>
      <point x="146" y="946" type="curve" smooth="yes"/>
      <point x="146" y="890"/>
      <point x="186" y="833"/>
    </contour>
  </outline>
</glyph>
<glyph name="A" format="1">
  <advance width="1360"/>
  <unicode hex="0041"/>
  <outline>
    <contour>
      <point x="52" y="0" type="line"/>
      <point x="232" y="0" type="line"/>
      <point x="403" y="470" type="line"/>
      <point x="962" y="470" type="line"/>
      <point x="1134" y="0" type="line"/>
      <point x="1308" y="0" type="line"/>
      <point x="774" y="1460" type="line"/>
      <point x="587" y="1460" type="line"/>
    </contour>
    <contour>
      <point x="922" y="592" type="line"/>
      <point x="444" y="592" type="line"/>
      <point x="682" y="1288" type="line"/>
    </contour>
  </outline>
</glyph>
<glyph name="B" format="1">
  <advance width="1332"/>
  <unicode hex="0042"/>
  <outline>
    <contour>
      <point x="164" y="0" type="line"/>
      <point x="708" y="0" type="line" smooth="yes"/>
      <point x="1055" y="0"/>
      <point x="1218" y="163"/>
      <point x="1218" y="412" type="curve" smooth="yes"/>
      <point x="1218" y="608"/>
      <point x="1128" y="748"/>
      <point x="876" y="787" type="curve"/>
      <point x="1083" y="837"/>
      <point x="1156" y="959"/>
      <point x="1156" y="1110" type="curve" smooth="yes"/>
      <point x="1156" y="1355"/>
      <point x="988" y="1460"/>
      <point x="622" y="1460" type="curve" smooth="yes"/>
      <point x="164" y="1460" type="line"/>
    </contour>
    <contour>
      <point x="340" y="1328" type="line"/>
      <point x="621" y="1328" type="line" smooth="yes"/>
      <point x="873" y="1328"/>
      <point x="988" y="1284"/>
      <point x="988" y="1089" type="curve" smooth="yes"/>
      <point x="988" y="891"/>
      <point x="864" y="845"/>
      <point x="674" y="845" type="curve" smooth="yes"/>
      <point x="340" y="845" type="line"/>
    </contour>
    <contour>
      <point x="340" y="720" type="line"/>
      <point x="626" y="720" type="line" smooth="yes"/>
      <point x="908" y="720"/>
      <point x="1042" y="629"/>
      <point x="1042" y="416" type="curve" smooth="yes"/>
      <point x="1042" y="218"/>
      <point x="932" y="134"/>
      <point x="680" y="134" type="curve" smooth="yes"/>
      <point x="340" y="134" type="line"/>
    </contour>
  </outline>
</glyph>
<glyph name="K" format="1">
  <advance width="1256"/>
  <unicode hex="004B"/>
  <outline>
    <contour>
      <point x="164" y="0" type="line"/>
      <point x="340" y="0" type="line"/>
      <point x="340" y="601" type="line"/>
      <point x="470" y="721" type="line"/>
      <point x="1024" y="0" type="line"/>
      <point x="1230" y="0" type="line"/>
      <point x="602" y="811" type="line"/>
      <point x="1200" y="1460" type="line"/>
      <point x="994" y="1460" type="line"/>
      <point x="340" y="761" type="line"/>
      <point x="340" y="1460" type="line"/>
      <point x="164" y="1460" type="line"/>
    </contour>
  </outline>
</glyph>
<glyph name="L" format="1">
  <advance width="1066"/>
  <unicode hex="004C"/>
  <outline>
    <contour>
      <point x="164" y="0" type="line"/>
      <point x="1010" y="0" type="line"/>
      <point x="1014" y="134" type="line"/>
      <point x="340" y="134" type="line"/>
      <point x="340" y="1460" type="line"/>
      <point x="164" y="1460" type="line"/>
    </contour>
  </outline>
</glyph>
<glyph name="Q" format="1">
  <advance width="1616"/>
  <unicode hex="0051"/>
  <outline>
    <component base="O"/>
    <contour>
      <point x="1260" y="-401" type="curve"/>
      <point x="1372" y="-303" type="line"/>
      <point x="1278" y="-206"/>
      <point x="1140" y="-28"/>
      <point x="1088" y="79" type="curve"/>
      <point x="940" y="51" type="line"/>
      <point x="1030" y="-127"/>
      <point x="1188" y="-333"/>
    </contour>
  </outline>
</glyph>
<glyph name="V" format="1">
  <advance width="1352"/>
  <unicode hex="0056"/>
  <outline>
    <contour>
      <point x="599" y="0" type="line"/>
      <point x="753" y="0" type="line"/>
      <point x="1292" y="1460" type="line"/>
      <point x="1111" y="1460" type="line"/>
      <point x="966" y="1045"/>
      <point x="824" y="628"/>
      <point x="677" y="215" type="curve"/>
      <point x="528" y="626"/>
      <point x="387" y="1045"/>
      <point x="242" y="1460" type="curve"/>
      <point x="60" y="1460" type="line"/>
    </contour>
  </outline>
</glyph>
<glyph name="bracketleft" format="1">
  <advance width="674"/>
  <unicode hex="005B"/>
  <outline>
    <contour>
      <point x="171" y="-255" type="line"/>
      <point x="171" y="1460" type="line"/>
      <point x="635" y="1460" type="line"/>
      <point x="635" y="1342" type="line"/>
      <point x="347" y="1342" type="line"/>
      <point x="347" y="-138" type="line"/>
      <point x="635" y="-138" type="line"/>
      <point x="635" y="-255" type="line"/>
    </contour>
  </outline>
</glyph>
<glyph name="k" format="1">
  <advance width="1039"/>
  <unicode hex="006B"/>
  <outline>
    <contour>
      <point x="140" y="0" type="line"/>
      <point x="304" y="0" type="line"/>
      <point x="304" y="387" type="line"/>
      <point x="418" y="495" type="line"/>
      <point x="838" y="0" type="line"/>
      <point x="1033" y="0" type="line"/>
      <point x="533" y="575" type="line"/>
      <point x="995" y="1058" type="line"/>
      <point x="794" y="1058" type="line"/>
      <point x="298" y="521" type="line"/>
      <point x="304" y="739" type="line"/>
      <point x="304" y="1472" type="line"/>
      <point x="140" y="1460" type="line"/>
    </contour>
  </outline>
</glyph>
<glyph name="v" format="1">
  <advance width="1077"/>
  <unicode hex="0076"/>
  <outline>
    <contour>
      <point x="459" y="0" type="line"/>
      <point x="626" y="0" type="line"/>
      <point x="1027" y="1058" type="line"/>
      <point x="858" y="1058" type="line"/>
      <point x="753" y="767"/>
      <point x="648" y="475"/>
      <point x="543" y="184" type="curve"/>
      <point x="434" y="474"/>
      <point x="328" y="766"/>
      <point x="220" y="1058" type="curve"/>
      <point x="50" y="1058" type="line"/>
    </contour>
  </outline>
</glyph>
<glyph name="y" format="1">
  <advance width="1075"/>
  <unicode hex="0079"/>
  <outline>
    <contour>
      <point x="478" y="-398" type="line"/>
      <point x="1035" y="1058" type="line"/>
      <point x="867" y="1058" type="line"/>
      <point x="565" y="213" type="line"/>
      <point x="235" y="1058" type="line"/>
      <point x="66" y="1058" type="line"/>
      <point x="485" y="32" type="line"/>
      <point x="329" y="-366" type="line"/>
    </contour>
  </outline>
</glyph>
<glyph name="dieresis" format="1">
  <advance width="740"/>
  <unicode hex="00A8"/>
  <unicode hex="0308"/>
  <outline>
    <contour>
      <point x="194" y="1420" type="curve" smooth="yes"/>
      <point x="245" y="1420"/>
      <point x="284" y="1382"/>
      <point x="284" y="1325" type="curve" smooth="yes"/>
      <point x="284" y="1268"/>
      <point x="245" y="1229"/>
      <point x="194" y="1229" type="curve" smooth="yes"/>
      <point x="142" y="1229"/>
      <point x="104" y="1268"/>
      <point x="104" y="1325" type="curve" smooth="yes"/>
      <point x="104" y="1382"/>
      <point x="142" y="1420"/>
    </contour>
    <contour>
      <point x="636" y="1325" type="curve" smooth="yes"/>
      <point x="636" y="1268"/>
      <point x="597" y="1229"/>
      <point x="546" y="1229" type="curve" smooth="yes"/>
      <point x="494" y="1229"/>
      <point x="456" y="1268"/>
      <point x="456" y="1325" type="curve" smooth="yes"/>
      <point x="456" y="1382"/>
      <point x="494" y="1420"/>
      <point x="546" y="1420" type="curve" smooth="yes"/>
      <point x="597" y="1420"/>
      <point x="636" y="1382"/>
    </contour>
  </outline>
</glyph>
<glyph name="macron" format="1">
  <advance width="1056"/>
  <unicode hex="00AF"/>
  <outline>
    <contour>
      <point x="224" y="1341" type="line"/>
      <point x="809" y="1341" type="line"/>
      <point x="809" y="1460" type="line"/>
      <point x="224" y="1460" type="line"/>
    </contour>
  </outline>
</glyph>
<glyph name="degree" format="1">
  <advance width="809"/>
  <unicode hex="00B0"/>
  <outline>
    <contour>
      <point x="404" y="907" type="curve" smooth="yes"/>
      <point x="568" y="907"/>
      <point x="705" y="1031"/>
      <point x="705" y="1195" type="curve" smooth="yes"/>
      <point x="705" y="1364"/>
      <point x="564" y="1480"/>
      <point x="404" y="1480" type="curve" smooth="yes"/>
      <point x="247" y="1480"/>
      <point x="105" y="1364"/>
      <point x="105" y="1195" type="curve" smooth="yes"/>
      <point x="105" y="1024"/>
      <point x="247" y="907"/>
    </contour>
    <contour>
      <point x="404" y="1001" type="curve" smooth="yes"/>
      <point x="298" y="1001"/>
      <point x="213" y="1079"/>
      <point x="213" y="1194" type="curve" smooth="yes"/>
      <point x="213" y="1308"/>
      <point x="300" y="1386"/>
      <point x="405" y="1386" type="curve" smooth="yes"/>
      <point x="511" y="1386"/>
      <point x="597" y="1308"/>
      <point x="597" y="1194" type="curve" smooth="yes"/>
      <point x="597" y="1080"/>
      <point x="511" y="1001"/>
    </contour>
  </outline>
</glyph>
<glyph name="acute" format="1">
  <advance width="619"/>
  <unicode hex="00B4"/>
  <unicode hex="0301"/>
  <outline>
    <contour>
      <point x="112" y="1058" type="line"/>
      <point x="209" y="1058" type="line"/>
      <point x="501" y="1460" type="line"/>
      <point x="295" y="1460" type="line"/>
    </contour>
  </outline>
</glyph>
<glyph name="cedilla" format="1">
  <advance width="575"/>
  <unicode hex="00B8"/>
  <outline>
    <contour>
      <point x="75" y="-376" type="line"/>
      <point x="228" y="-376" type="line"/>
      <point x="296" y="10" type="line"/>
      <point x="213" y="10" type="line"/>
    </contour>
  </outline>
</glyph>
<glyph name="divide" format="1">
  <advance width="1204"/>
  <unicode hex="00F7"/>
  <outline>
    <contour>
      <point x="507" y="871" type="line"/>
      <point x="700" y="871" type="line"/>
      <point x="700" y="1068" type="line"/>
      <point x="507" y="1068" type="line"/>
    </contour>
    <contour>
      <point x="126" y="495" type="line"/>
      <point x="1077" y="495" type="line"/>
      <point x="1077" y="630" type="line"/>
      <point x="126" y="630" type="line"/>
    </contour>
    <contour>
      <point x="507" y="32" type="line"/>
      <point x="698" y="32" type="line"/>
      <point x="698" y="233" type="line"/>
      <point x="507" y="233" type="line"/>
    </contour>
  </outline>
</glyph>
<glyph name="thorn" format="1">
  <advance width="1165"/>
  <unicode hex="00FE"/>
  <outline>
    <component base="b"/>
    <contour>
      <point x="136" y="297" type="line"/>
      <point x="136" y="-464" type="line"/>
      <point x="304" y="-464" type="line"/>
      <point x="304" y="297" type="line"/>
    </contour>
  </outline>
</glyph>
<glyph name="dcroat" format="1">
  <advance width="1276"/>
  <unicode hex="0111"/>
  <outline>
    <component base="d"/>
    <contour>
      <point x="694" y="1232" type="line"/>
      <point x="1189" y="1232" type="line"/>
      <point x="1189" y="1341" type="line"/>
      <point x="694" y="1341" type="line"/>
    </contour>
  </outline>
</glyph>
<glyph name="Hbar" format="1">
  <advance width="1567"/>
  <unicode hex="0126"/>
  <outline>
    <contour>
      <point x="377" y="818" type="line"/>
      <point x="1205" y="818" type="line"/>
      <point x="1205" y="1106" type="line"/>
      <point x="377" y="1106" type="line"/>
    </contour>
    <contour>
      <point x="230" y="0" type="line"/>
      <point x="230" y="1106" type="line"/>
      <point x="141" y="1106" type="line"/>
      <point x="141" y="1199" type="line"/>
      <point x="230" y="1199" type="line"/>
      <point x="230" y="1452" type="line"/>
      <point x="377" y="1452" type="line"/>
      <point x="377" y="1199" type="line"/>
      <point x="1205" y="1199" type="line"/>
      <point x="1205" y="1452" type="line"/>
      <point x="1352" y="1452" type="line"/>
      <point x="1352" y="1199" type="line"/>
      <point x="1441" y="1199" type="line"/>
      <point x="1441" y="1106" type="line"/>
      <point x="1352" y="1106" type="line"/>
      <point x="1352" y="0" type="line"/>
      <point x="1205" y="0" type="line"/>
      <point x="1205" y="680" type="line"/>
      <point x="377" y="680" type="line"/>
      <point x="377" y="0" type="line"/>
    </contour>
  </outline>
</glyph>
<glyph name="uni0237" format="1">
  <advance width="455"/>
  <unicode hex="0237"/>
  <outline>
    <contour>
      <point x="-49" y="-455" type="line"/>
      <point x="8" y="-455" type="line" smooth="yes"/>
      <point x="262" y="-455"/>
      <point x="315" y="-372"/>
      <point x="315" y="-120" type="curve" smooth="yes"/>
      <point x="315" y="1073" type="line"/>
      <point x="135" y="1073" type="line"/>
      <point x="135" y="-96" type="line" smooth="yes"/>
      <point x="135" y="-131"/>
      <point x="136" y="-161"/>
      <point x="136" y="-187" type="curve" smooth="yes"/>
      <point x="136" y="-281"/>
      <point x="121" y="-316"/>
      <point x="-22" y="-316" type="curve" smooth="yes"/>
      <point x="-82" y="-316" type="line"/>
    </contour>
  </outline>
</glyph>
<glyph name="gravecomb" format="1">
  <advance width="650"/>
  <unicode hex="0300"/>
  <outline>
    <contour>
      <point x="414" y="1058" type="line"/>
      <point x="508" y="1058" type="line"/>
      <point x="332" y="1460" type="line"/>
      <point x="144" y="1460" type="line"/>
    </contour>
  </outline>
</glyph>
<glyph name="uni0307" format="1">
  <advance width="339"/>
  <unicode hex="0307"/>
  <outline>
    <contour>
      <point x="94" y="1274" type="line"/>
      <point x="245" y="1274" type="line"/>
      <point x="245" y="1460" type="line"/>
      <point x="94" y="1460" type="line"/>
    </contour>
  </outline>
</glyph>
<glyph name="uni0326" format="1">
  <advance width="297"/>
  <unicode hex="0326"/>
  <outline>
    <contour>
      <point x="51" y="-664" type="line"/>
      <point x="132" y="-196" type="line"/>
      <point x="235" y="-196" type="line"/>
      <point x="117" y="-664" type="line"/>
    </contour>
  </outline>
</glyph>
<glyph name="afii10145" format="1">
  <advance width="1523"/>
  <unicode hex="040F"/>
  <outline>
    <contour>
      <point x="1299" y="1449" type="line"/>
      <point x="1299" y="0" type="line"/>
      <point x="841" y="0" type="line"/>
      <point x="841" y="-294" type="line"/>
      <point x="719" y="-294" type="line"/>
      <point x="719" y="0" type="line"/>
      <point x="225" y="0" type="line"/>
      <point x="225" y="1449" type="line"/>
      <point x="347" y="1449" type="line"/>
      <point x="347" y="87" type="line"/>
      <point x="1177" y="87" type="line"/>
      <point x="1177" y="1449" type="line"/>
    </contour>
  </outline>
</glyph>
<glyph name="afii10033" format="1">
  <advance width="1502"/>
  <unicode hex="041F"/>
  <outline>
    <contour>
      <point x="207" y="0" type="line"/>
      <point x="383" y="0" type="line"/>
      <point x="383" y="1331" type="line"/>
      <point x="1142" y="1331" type="line"/>
      <point x="1142" y="0" type="line"/>
      <point x="1318" y="0" type="line"/>
      <point x="1318" y="1460" type="line"/>
      <point x="207" y="1460" type="line"/>
    </contour>
  </outline>
</glyph>
<glyph name="afii10046" format="1">
  <advance width="1277"/>
  <unicode hex="042C"/>
  <outline>
    <contour>
      <point x="198" y="0" type="line"/>
      <point x="694" y="0" type="line" smooth="yes"/>
      <point x="1058" y="0"/>
      <point x="1181" y="170"/>
      <point x="1181" y="416" type="curve" smooth="yes"/>
      <point x="1181" y="656"/>
      <point x="1060" y="823"/>
      <point x="690" y="823" type="curve" smooth="yes"/>
      <point x="374" y="823" type="line"/>
      <point x="374" y="1460" type="line"/>
      <point x="198" y="1460" type="line"/>
    </contour>
    <contour>
      <point x="374" y="690" type="line"/>
      <point x="684" y="690" type="line" smooth="yes"/>
      <point x="922" y="690"/>
      <point x="1004" y="615"/>
      <point x="1004" y="414" type="curve" smooth="yes"/>
      <point x="1004" y="214"/>
      <point x="908" y="134"/>
      <point x="686" y="134" type="curve" smooth="yes"/>
      <point x="374" y="134" type="line"/>
    </contour>
  </outline>
</glyph>
<glyph name="afii10085" format="1">
  <advance width="1118"/>
  <unicode hex="0443"/>
  <outline>
    <contour>
      <point x="251" y="-304" type="curve"/>
      <point x="251" y="-203" type="line"/>
      <point x="541" y="-203"/>
      <point x="584" y="-185"/>
      <point x="584" y="13" type="curve" smooth="yes"/>
      <point x="584" y="28" type="line"/>
      <point x="583" y="147" type="line"/>
      <point x="118" y="1055" type="line"/>
      <point x="242" y="1055" type="line"/>
      <point x="630" y="284" type="line"/>
      <point x="946" y="1055" type="line"/>
      <point x="1066" y="1055" type="line"/>
      <point x="695" y="148" type="line"/>
      <point x="696" y="26" type="line"/>
      <point x="696" y="1" type="line" smooth="yes"/>
      <point x="696" y="-249"/>
      <point x="647" y="-304"/>
    </contour>
  </outline>
</glyph>
<glyph name="afii10193" format="1">
  <advance width="1077"/>
  <unicode hex="045F"/>
  <outline>
    <contour>
      <point x="518" y="-260" type="line"/>
      <point x="629" y="-260" type="line"/>
      <point x="633" y="0" type="line"/>
      <point x="942" y="0" type="line"/>
      <point x="942" y="1059" type="line"/>
      <point x="802" y="1059" type="line"/>
      <point x="802" y="115" type="line"/>
      <point x="288" y="115" type="line"/>
      <point x="288" y="1059" type="line"/>
      <point x="148" y="1059" type="line"/>
      <point x="148" y="0" type="line"/>
      <point x="514" y="0" type="line"/>
    </contour>
  </outline>
</glyph>
<glyph name="emdash" format="1">
  <advance width="2356"/>
  <unicode hex="2014"/>
  <outline>
    <contour>
      <point x="132" y="521" type="line"/>
      <point x="2244" y="521" type="line"/>
      <point x="2244" y="655" type="line"/>
      <point x="132" y="655" type="line"/>
    </contour>
  </outline>
</glyph>
<glyph name="quotesinglbase" format="1">
  <advance width="436"/>
  <unicode hex="201A"/>
  <outline>
    <contour>
      <point x="97" y="-248" type="line"/>
      <point x="196" y="-248" type="line"/>
      <point x="320" y="204" type="line"/>
      <point x="182" y="204" type="line"/>
    </contour>
  </outline>
</glyph>
<glyph name="quotedblleft" format="1">
  <advance width="762"/>
  <unicode hex="201C"/>
  <outline>
    <contour>
      <point x="585" y="1086" type="line"/>
      <point x="653" y="1599" type="line"/>
      <point x="540" y="1533" type="line"/>
      <point x="428" y="1019" type="line"/>
    </contour>
    <contour>
      <point x="278" y="1086" type="line"/>
      <point x="354" y="1599" type="line"/>
      <point x="236" y="1533" type="line"/>
      <point x="127" y="1019" type="line"/>
    </contour>
  </outline>
</glyph>
<glyph name="guilsinglleft" format="1">
  <advance width="599"/>
  <unicode hex="2039"/>
  <outline>
    <contour>
      <point x="525" y="980" type="line"/>
      <point x="393" y="980" type="line"/>
      <point x="95" y="560" type="line"/>
      <point x="388" y="148" type="line"/>
      <point x="519" y="148" type="line"/>
      <point x="235" y="559" type="line"/>
    </contour>
  </outline>
</glyph>
<glyph name="guilsinglright" format="1">
  <advance width="607"/>
  <unicode hex="203A"/>
  <outline>
    <contour>
      <point x="111" y="148" type="line"/>
      <point x="244" y="148" type="line"/>
      <point x="542" y="568" type="line"/>
      <point x="248" y="980" type="line"/>
      <point x="117" y="980" type="line"/>
      <point x="401" y="568" type="line"/>
    </contour>
  </outline>
</glyph>
<glyph name="fraction" format="1">
  <advance width="1139"/>
  <unicode hex="2044"/>
  <outline>
    <contour>
      <point x="127" y="0" type="line"/>
      <point x="264" y="0" type="line"/>
      <point x="1034" y="1460" type="line"/>
      <point x="906" y="1460" type="line"/>
    </contour>
  </outline>
</glyph>
<glyph name="Euro" format="1">
  <advance width="1292"/>
  <unicode hex="20AC"/>
  <outline>
    <component base="C"/>
    <contour>
      <point x="874" y="524" type="line"/>
      <point x="882" y="633" type="line"/>
      <point x="247" y="633" type="line"/>
      <point x="247" y="808" type="line"/>
      <point x="882" y="808" type="line"/>
      <point x="890" y="914" type="line"/>
      <point x="30" y="914" type="line"/>
      <point x="24" y="808" type="line"/>
      <point x="161" y="808" type="line"/>
      <point x="161" y="633" type="line"/>
      <point x="25" y="633" type="line"/>
      <point x="17" y="524" type="line"/>
    </contour>
  </outline>
</glyph>
<glyph name="summation" format="1">
  <advance width="1174"/>
  <unicode hex="2211"/>
  <outline>
    <contour>
      <point x="96" y="-148" type="line"/>
      <point x="1058" y="-148" type="line"/>
      <point x="1058" y="0" type="line"/>
      <point x="327" y="0" type="line"/>
      <point x="799" y="644" type="line"/>
      <point x="344" y="1320" type="line"/>
      <point x="1011" y="1320" type="line"/>
      <point x="1011" y="1460" type="line"/>
      <point x="118" y="1460" type="line"/>
      <point x="118" y="1367" type="line"/>
      <point x="602" y="651" type="line"/>
      <point x="96" y="-59" type="line"/>
    </contour>
  </outline>
</glyph>
